custom-analysis
version=1
nRows=27
nColumns=13
inDegrees=no

This file contains tibia displacement and acting force.

Units are S.I. units (seconds, meters, Newtons, ...)
Angles are in degrees.

endheader
time	displacement	knee_angle	aACL_R_strain	pACL_R_strain	aPCL_R_strain	pPCL_R_strain	aMCL_R_strain	aLCL_R_strain	aPCL_L_strain	pPCL_L_strain	aMCL_L_strain	aLCL_L_strain
      0.13890178	      0.01171364	     24.13115374	     -0.00885509	     -0.09830184	     -0.00444089	     -0.10248165	     -0.10651265	     -0.06824436	      0.05309243	     -0.22568664	      0.03007927	      0.01609748
      0.14079414	      0.01184953	     24.63074454	     -0.00838787	     -0.09972123	      0.00033929	     -0.10020854	     -0.10815364	     -0.06801110	      0.05315508	     -0.22602610	      0.03023031	      0.01611301
      0.14205363	      0.01193977	     24.96197915	     -0.00848874	     -0.10113013	      0.00339268	     -0.09890520	     -0.10943140	     -0.06801705	      0.05321428	     -0.22625994	      0.03032502	      0.01612375
      0.14331312	      0.01203318	     25.29248961	     -0.00885456	     -0.10282311	      0.00625137	     -0.09782552	     -0.11084591	     -0.06817122	      0.05330639	     -0.22648902	      0.03041559	      0.01613556
      0.14442756	      0.01211870	     25.58484522	     -0.00925441	     -0.10439316	      0.00866358	     -0.09697841	     -0.11214359	     -0.06837744	      0.05339483	     -0.22669121	      0.03049382	      0.01614879
      0.14554200	      0.01220580	     25.87737225	     -0.00965905	     -0.10596073	      0.01103055	     -0.09616109	     -0.11344564	     -0.06860792	      0.05346220	     -0.22690262	      0.03057100	      0.01616566
      0.14709567	      0.01232756	     26.28593151	     -0.01012913	     -0.10803762	      0.01437530	     -0.09494448	     -0.11520498	     -0.06889859	      0.05353617	     -0.22720885	      0.03067492	      0.01619292
      0.14836612	      0.01242640	     26.61978874	     -0.01054899	     -0.10977743	      0.01713547	     -0.09392525	     -0.11664260	     -0.06914405	      0.05356341	     -0.22747634	      0.03075677	      0.01621895
      0.14963657	      0.01252442	     26.95349667	     -0.01098704	     -0.11154029	      0.01992931	     -0.09287088	     -0.11807082	     -0.06938911	      0.05356001	     -0.22776146	      0.03083537	      0.01624828
      0.15118660	      0.01263994	     27.35895504	     -0.01172863	     -0.11393880	      0.02341490	     -0.09155779	     -0.11986539	     -0.06972175	      0.05354831	     -0.22812131	      0.03092448	      0.01628532
      0.15273663	      0.01275649	     27.76451844	     -0.01243755	     -0.11629581	      0.02689176	     -0.09022362	     -0.12162907	     -0.07006163	      0.05356704	     -0.22847600	      0.03100563	      0.01632295
      0.15428665	      0.01287756	     28.17245600	     -0.01283886	     -0.11829167	      0.03034264	     -0.08881310	     -0.12325577	     -0.07034657	      0.05364326	     -0.22880865	      0.03107983	      0.01636222
      0.15583668	      0.01299958	     28.58177100	     -0.01308846	     -0.12011774	      0.03383470	     -0.08731246	     -0.12479462	     -0.07059140	      0.05376179	     -0.22911457	      0.03114949	      0.01640610
      0.15781777	      0.01314511	     29.10191174	     -0.01386488	     -0.12301236	      0.03852680	     -0.08529457	     -0.12687004	     -0.07095676	      0.05392575	     -0.22947868	      0.03123346	      0.01647129
      0.15912629	      0.01323960	     29.44410322	     -0.01462016	     -0.12520703	      0.04161530	     -0.08401474	     -0.12831816	     -0.07127856	      0.05403632	     -0.22970401	      0.03128507	      0.01651898
      0.16027255	      0.01332291	     29.74343074	     -0.01536204	     -0.12722031	      0.04428437	     -0.08293199	     -0.12961010	     -0.07160411	      0.05411905	     -0.22989684	      0.03132793	      0.01656431
      0.16141881	      0.01340847	     30.04313458	     -0.01607303	     -0.12919346	      0.04689388	     -0.08187992	     -0.13088580	     -0.07195288	      0.05418166	     -0.23008910	      0.03136809	      0.01661254
      0.16287948	      0.01352190	     30.42687667	     -0.01676352	     -0.13145565	      0.05015047	     -0.08052773	     -0.13241610	     -0.07238054	      0.05424999	     -0.23032748	      0.03141390	      0.01667602
      0.16412412	      0.01361387	     30.75213535	     -0.01758070	     -0.13366194	      0.05302357	     -0.07933436	     -0.13377248	     -0.07277901	      0.05431756	     -0.23051607	      0.03144754	      0.01673070
      0.16536877	      0.01370637	     31.07705870	     -0.01845656	     -0.13593688	      0.05586809	     -0.07816504	     -0.13513755	     -0.07321446	      0.05441179	     -0.23068178	      0.03147615	      0.01678542
      0.16675455	      0.01381179	     31.43931888	     -0.01937707	     -0.13840598	      0.05897614	     -0.07688276	     -0.13662189	     -0.07372021	      0.05455956	     -0.23083013	      0.03150273	      0.01684675
      0.16814033	      0.01392099	     31.80299604	     -0.02012261	     -0.14067340	      0.06201408	     -0.07560052	     -0.13802250	     -0.07422051	      0.05474928	     -0.23093519	      0.03152522	      0.01691036
      0.16952611	      0.01402813	     32.16607213	     -0.02094984	     -0.14304811	      0.06510729	     -0.07427368	     -0.13941786	     -0.07473583	      0.05496403	     -0.23099885	      0.03154507	      0.01697844
      0.17091189	      0.01413854	     32.53060702	     -0.02162045	     -0.14524649	      0.06814216	     -0.07294270	     -0.14073321	     -0.07524717	      0.05518569	     -0.23102599	      0.03156255	      0.01705166
      0.17229767	      0.01424834	     32.89495126	     -0.02235658	     -0.14753161	      0.07118812	     -0.07160109	     -0.14204384	     -0.07578737	      0.05540755	     -0.23101906	      0.03157690	      0.01712898
      0.17351606	      0.01434294	     33.21422031	     -0.02317987	     -0.14975382	      0.07389085	     -0.07042696	     -0.14323752	     -0.07631280	      0.05559183	     -0.23098894	      0.03158643	      0.01719983
      0.17473446	      0.01443759	     33.53292947	     -0.02410870	     -0.15210292	      0.07656848	     -0.06928416	     -0.14445427	     -0.07688804	      0.05576966	     -0.23093566	      0.03159217	      0.01727193
